<?xml version="1.0" encoding="utf-8"?>
<svg version="1.1" xmlns:xlink="http://www.w3.org/1999/xlink" width="14px" height="10px" xmlns="http://www.w3.org/2000/svg">
  <g transform="matrix(1 0 0 1 -802 -346 )">
    <path d="M 13.740234375 0.329861111111112  C 13.9134114583333 0.549768518518517  14 0.810185185185183  14 1.11111111111111  C 14 1.41203703703704  13.9134114583333 1.6724537037037  13.740234375 1.89236111111111  L 7.615234375 9.67013888888889  C 7.44205729166667 9.8900462962963  7.23697916666667 10  7 10  C 6.76302083333333 10  6.55794270833333 9.8900462962963  6.384765625 9.67013888888889  L 0.259765625 1.89236111111111  C 0.0865885416666667 1.6724537037037  0 1.41203703703704  0 1.11111111111111  C 0 0.810185185185183  0.0865885416666667 0.549768518518517  0.259765625 0.329861111111112  C 0.432942708333333 0.109953703703702  0.638020833333333 0  0.875 0  L 13.125 0  C 13.3619791666667 0  13.5670572916667 0.109953703703702  13.740234375 0.329861111111112  Z " fill-rule="nonzero" fill="#d7d7d7" stroke="none" transform="matrix(1 0 0 1 802 346 )" />
  </g>
</svg>