<?xml version="1.0" encoding="utf-8"?>
<svg version="1.1" xmlns:xlink="http://www.w3.org/1999/xlink" width="200px" height="30px" xmlns="http://www.w3.org/2000/svg">
  <g transform="matrix(1 0 0 1 -506 -1 )">
    <path d="M 694.480211928917 1.5  C 694.480211928917 1.5  696.745357510972 1.66988591865412  696.745357510972 1.66988591865412  C 696.745357510972 1.66988591865412  705.4743610123 16  705.4743610123 16  C 705.4743610123 16  696.745357510972 30.3301140813459  696.745357510972 30.3301140813459  C 696.745357510972 30.3301140813459  694.480211928917 30.5  694.480211928917 30.5  C 694.480211928917 30.5  510 30.5  510 30.5  C 508.04 30.5  506.5 28.96  506.5 27  C 506.5 27  506.5 5  506.5 5  C 506.5 3.04  508.04 1.5  510 1.5  C 510 1.5  694.480211928917 1.5  694.480211928917 1.5  Z " fill-rule="nonzero" fill="#ffffff" stroke="none" />
    <path d="M 694.480211928917 1.5  C 694.480211928917 1.5  696.745357510972 1.66988591865412  696.745357510972 1.66988591865412  C 696.745357510972 1.66988591865412  705.4743610123 16  705.4743610123 16  C 705.4743610123 16  696.745357510972 30.3301140813459  696.745357510972 30.3301140813459  C 696.745357510972 30.3301140813459  694.480211928917 30.5  694.480211928917 30.5  C 694.480211928917 30.5  510 30.5  510 30.5  C 508.04 30.5  506.5 28.96  506.5 27  C 506.5 27  506.5 5  506.5 5  C 506.5 3.04  508.04 1.5  510 1.5  C 510 1.5  694.480211928917 1.5  694.480211928917 1.5  Z " stroke-width="1" stroke="#1890ff" fill="none" />
  </g>
</svg>