<?xml version="1.0" encoding="utf-8"?>
<svg version="1.1" xmlns:xlink="http://www.w3.org/1999/xlink" width="12px" height="8px" xmlns="http://www.w3.org/2000/svg">
  <g transform="matrix(1 0 0 1 -35 -170 )">
    <path d="M 11.77734375 0.263888888888889  C 11.92578125 0.439814814814813  12 0.648148148148146  12 0.888888888888889  C 12 1.12962962962963  11.92578125 1.33796296296296  11.77734375 1.51388888888889  L 6.52734375 7.73611111111111  C 6.37890625 7.91203703703703  6.203125 8  6 8  C 5.796875 8  5.62109375 7.91203703703703  5.47265625 7.73611111111111  L 0.22265625 1.51388888888889  C 0.07421875 1.33796296296296  0 1.12962962962963  0 0.888888888888889  C 0 0.648148148148146  0.07421875 0.439814814814813  0.22265625 0.263888888888889  C 0.37109375 0.0879629629629619  0.546875 0  0.75 0  L 11.25 0  C 11.453125 0  11.62890625 0.0879629629629619  11.77734375 0.263888888888889  Z " fill-rule="nonzero" fill="#aaaaaa" stroke="none" transform="matrix(1 0 0 1 35 170 )" />
  </g>
</svg>