<?xml version="1.0" encoding="utf-8"?>
<svg version="1.1" xmlns:xlink="http://www.w3.org/1999/xlink" width="15px" height="14px" xmlns="http://www.w3.org/2000/svg">
  <g transform="matrix(1 0 0 1 -894 -191 )">
    <path d="M 14.5563616071429 6.32625  C 14.8521205357143 7.10791666666666  15 8.07916666666667  15 9.24  C 15 10.2083333333333  14.6456473214286 11.52375  13.9369419642857 13.18625  C 13.9202008928571 13.2270833333333  13.8909040178571 13.2970833333333  13.8490513392857 13.39625  C 13.8071986607143 13.4954166666667  13.76953125 13.5829166666667  13.7360491071429 13.65875  C 13.7025669642857 13.7345833333333  13.6662946428571 13.79875  13.6272321428571 13.85125  C 13.5602678571429 13.9504166666667  13.4821428571429 14  13.3928571428571 14  C 13.3091517857143 14  13.2435825892857 13.9708333333333  13.1961495535714 13.9125  C 13.1487165178571 13.8541666666667  13.125 13.78125  13.125 13.69375  C 13.125 13.64125  13.1319754464286 13.5639583333333  13.1459263392857 13.461875  C 13.1598772321429 13.3597916666667  13.1668526785714 13.29125  13.1668526785714 13.25625  C 13.1947544642857 12.8595833333333  13.2087053571429 12.5008333333333  13.2087053571429 12.18  C 13.2087053571429 11.5908333333333  13.1598772321429 11.0629166666667  13.0622209821429 10.59625  C 12.9645647321429 10.1295833333333  12.8292410714286 9.725625  12.65625 9.384375  C 12.4832589285714 9.043125  12.2600446428571 8.74854166666666  11.9866071428571 8.500625  C 11.7131696428571 8.25270833333333  11.4188058035714 8.05  11.103515625 7.8925  C 10.7882254464286 7.735  10.4171316964286 7.61104166666667  9.990234375 7.520625  C 9.56333705357143 7.43020833333333  9.13364955357143 7.3675  8.701171875 7.3325  C 8.26869419642857 7.2975  7.77901785714286 7.28  7.23214285714286 7.28  L 5.35714285714286 7.28  L 5.35714285714286 9.52  C 5.35714285714286 9.67166666666667  5.30412946428571 9.80291666666667  5.19810267857143 9.91375  C 5.09207589285714 10.0245833333333  4.96651785714286 10.08  4.82142857142857 10.08  C 4.67633928571429 10.08  4.55078125 10.0245833333333  4.44475446428571 9.91375  L 0.159040178571429 5.43375  C 0.0530133928571429 5.32291666666667  0 5.19166666666667  0 5.04  C 0 4.88833333333333  0.0530133928571429 4.75708333333333  0.159040178571429 4.64625  L 4.44475446428571 0.16625  C 4.55078125 0.055416666666666  4.67633928571429 0  4.82142857142857 0  C 4.96651785714286 0  5.09207589285714 0.055416666666666  5.19810267857143 0.16625  C 5.30412946428571 0.277083333333332  5.35714285714286 0.408333333333332  5.35714285714286 0.56  L 5.35714285714286 2.8  L 7.23214285714286 2.8  C 11.2109375 2.8  13.65234375 3.97541666666667  14.5563616071429 6.32625  Z " fill-rule="nonzero" fill="#1890ff" stroke="none" transform="matrix(1 0 0 1 894 191 )" />
  </g>
</svg>