<?xml version="1.0" encoding="utf-8"?>
<svg version="1.1" xmlns:xlink="http://www.w3.org/1999/xlink" width="500px" height="30px" xmlns="http://www.w3.org/2000/svg">
  <g transform="matrix(1 0 0 1 0 -1 )">
    <path d="M 489.535940018918 1.5  C 489.535940018918 1.5  490.75903754388 1.53669292574887  490.75903754388 1.53669292574887  C 490.75903754388 1.53669292574887  499.48940398709 16  499.48940398709 16  C 499.48940398709 16  490.75903754388 30.4633070742511  490.75903754388 30.4633070742511  C 490.75903754388 30.4633070742511  489.535940018918 30.5  489.535940018918 30.5  C 489.535940018918 30.5  4 30.5  4 30.5  C 2.04 30.5  0.5 28.96  0.5 27  C 0.5 27  0.5 5  0.5 5  C 0.5 3.04  2.04 1.5  4 1.5  C 4 1.5  489.535940018918 1.5  489.535940018918 1.5  Z " fill-rule="nonzero" fill="#ffffff" stroke="none" />
    <path d="M 489.535940018918 1.5  C 489.535940018918 1.5  490.75903754388 1.53669292574887  490.75903754388 1.53669292574887  C 490.75903754388 1.53669292574887  499.48940398709 16  499.48940398709 16  C 499.48940398709 16  490.75903754388 30.4633070742511  490.75903754388 30.4633070742511  C 490.75903754388 30.4633070742511  489.535940018918 30.5  489.535940018918 30.5  C 489.535940018918 30.5  4 30.5  4 30.5  C 2.04 30.5  0.5 28.96  0.5 27  C 0.5 27  0.5 5  0.5 5  C 0.5 3.04  2.04 1.5  4 1.5  C 4 1.5  489.535940018918 1.5  489.535940018918 1.5  Z " stroke-width="1" stroke="#1890ff" fill="none" />
  </g>
</svg>