<?xml version="1.0" encoding="utf-8"?>
<svg version="1.1" xmlns:xlink="http://www.w3.org/1999/xlink" width="14px" height="10px" xmlns="http://www.w3.org/2000/svg">
  <g>
    <path d="M 14 2.21739130434783  C 14 2.38808373590982  13.9449958643507 2.53462157809984  13.8349875930521 2.65700483091787  L 7.39081885856079 9.81642512077295  C 7.2808105872622 9.93880837359098  7.1505376344086 10  7 10  C 6.8494623655914 10  6.7191894127378 9.93880837359098  6.60918114143921 9.81642512077295  L 0.165012406947891 2.65700483091787  C 0.055004135649297 2.53462157809984  0 2.38808373590982  0 2.21739130434783  C 0 2.04669887278583  0.055004135649297 1.90016103059581  0.165012406947891 1.77777777777778  L 1.60669975186104 0.183574879227053  C 1.71670802315964 0.0611916264090173  1.84698097601323 0  1.99751861042184 0  C 2.14805624483044 0  2.27832919768404 0.0611916264090173  2.38833746898263 0.183574879227053  L 7 5.31400966183575  L 11.6116625310174 0.183574879227053  C 11.721670802316 0.0611916264090173  11.8519437551696 0  12.0024813895782 0  C 12.1530190239868 0  12.2832919768404 0.0611916264090173  12.393300248139 0.183574879227053  L 13.8349875930521 1.77777777777778  C 13.9449958643507 1.90016103059581  14 2.04669887278583  14 2.21739130434783  Z " fill-rule="nonzero" fill="#d7d7d7" stroke="none" />
  </g>
</svg>