<?xml version="1.0" encoding="utf-8"?>
<svg version="1.1" xmlns:xlink="http://www.w3.org/1999/xlink" width="20px" height="20px" xmlns="http://www.w3.org/2000/svg">
  <g transform="matrix(1 0 0 1 -34 -23 )">
    <path d="M 18.9795918367347 3.99739583333333  C 19.2837134853942 4.12760416666667  19.5198079231693 4.31423611111111  19.68787515006 4.55729166666667  C 20.0080032012805 5.05208333333333  20.0800320128051 5.61197916666667  19.9039615846339 6.23697916666667  L 16.6026410564226 18.0338541666667  C 16.4505802320928 18.5894097222222  16.1444577831132 19.0559895833333  15.6842737094838 19.43359375  C 15.2240896358543 19.8111979166667  14.733893557423 20  14.2136854741897 20  L 3.13325330132053 20  C 2.51700680272109 20  1.92276910764306 19.7677951388889  1.35054021608643 19.3033854166667  C 0.778311324529812 18.8389756944444  0.38015206082433 18.2682291666667  0.156062424969988 17.5911458333333  C -0.0360144057623049 17.0095486111111  -0.0440176070428171 16.4583333333333  0.132052821128451 15.9375  C 0.132052821128451 15.9027777777778  0.14405762304922 15.7855902777778  0.168067226890756 15.5859375  C 0.192076830732293 15.3862847222222  0.208083233293317 15.2256944444444  0.21608643457383 15.1041666666667  C 0.224089635854342 15.0347222222222  0.212084833933573 14.94140625  0.180072028811525 14.82421875  C 0.148059223689476 14.70703125  0.136054421768707 14.6223958333333  0.14405762304922 14.5703125  C 0.160064025610244 14.4748263888889  0.192076830732293 14.3836805555556  0.240096038415366 14.296875  C 0.288115246098439 14.2100694444444  0.354141656662665 14.1080729166667  0.438175270108043 13.9908854166667  C 0.522208883553421 13.8736979166667  0.588235294117647 13.7717013888889  0.63625450180072 13.6848958333333  C 0.820328131252501 13.3550347222222  1.00040016006403 12.9578993055556  1.17647058823529 12.4934895833333  C 1.35254101640656 12.0290798611111  1.47258903561425 11.6319444444444  1.53661464585834 11.3020833333333  C 1.56062424969988 11.2152777777778  1.56262505002001 11.0850694444444  1.54261704681873 10.9114583333333  C 1.52260904361745 10.7378472222222  1.52060824329732 10.6163194444444  1.53661464585834 10.546875  C 1.56062424969988 10.4513888888889  1.62865146058423 10.3298611111111  1.7406962785114 10.1822916666667  C 1.85274109643858 10.0347222222222  1.92076830732293 9.93489583333333  1.94477791116447 9.8828125  C 2.11284513805522 9.5703125  2.28091236494598 9.17100694444444  2.44897959183673 8.68489583333333  C 2.61704681872749 8.19878472222222  2.71708683473389 7.80815972222222  2.74909963985594 7.51302083333333  C 2.75710284113645 7.43489583333333  2.74709883953581 7.29600694444444  2.71908763505402 7.09635416666667  C 2.69107643057223 6.89670138888889  2.69307723089236 6.77517361111111  2.72509003601441 6.73177083333333  C 2.75710284113645 6.61892361111111  2.84513805522209 6.48654513888889  2.98919567827131 6.33463541666667  C 3.13325330132053 6.18272569444444  3.22128851540616 6.08506944444444  3.25330132052821 6.04166666666667  C 3.40536214485794 5.81597222222222  3.57543017206883 5.44921875  3.76350540216086 4.94140625  C 3.9515806322529 4.43359375  4.06162464985994 4.01475694444444  4.09363745498199 3.68489583333333  C 4.10164065626251 3.61545138888889  4.08963585434174 3.50477430555555  4.05762304921969 3.35286458333333  C 4.02561024409764 3.20095486111111  4.01760704281713 3.0859375  4.03361344537815 3.0078125  C 4.04961984793918 2.93836805555555  4.08563425370148 2.86024305555555  4.14165666266507 2.7734375  C 4.19767907162865 2.68663194444444  4.26970788315326 2.58680555555555  4.3577430972389 2.47395833333333  C 4.44577831132453 2.36111111111111  4.51380552220888 2.26996527777778  4.56182472989196 2.20052083333333  C 4.62585034013606 2.09635416666667  4.69187675070028 1.96397569444444  4.75990396158463 1.80338541666667  C 4.82793117246899 1.64279513888889  4.88795518207283 1.49088541666667  4.93997599039616 1.34765625  C 4.99199679871949 1.20442708333333  5.05602240896359 1.04817708333333  5.13205282112845 0.87890625  C 5.20808323329332 0.709635416666667  5.28611444577831 0.570746527777777  5.36614645858343 0.462239583333333  C 5.44617847138856 0.353732638888886  5.55222088835534 0.251736111111109  5.68427370948379 0.15625  C 5.81632653061225 0.0607638888888862  5.96038415366147 0.0108506944444442  6.11644657863145 0.00651041666666741  C 6.27250900360144 0.00217013888888618  6.46258503401361 0.0260416666666674  6.68667466986795 0.078125  L 6.67466986794718 0.1171875  C 6.97879151660664 0.0390625  7.1828731492597 0  7.28691476590636 0  L 16.422569027611 0  C 17.014805922369 0  17.4709883953581 0.243055555555554  17.7911164465786 0.729166666666667  C 18.1112444977991 1.21527777777778  18.1832733093237 1.77951388888889  18.0072028811525 2.421875  L 14.7178871548619 14.21875  C 14.4297719087635 15.2517361111111  14.1436574629852 15.91796875  13.859543817527 16.2174479166667  C 13.5754301720688 16.5169270833333  13.0612244897959 16.6666666666667  12.3169267707083 16.6666666666667  L 1.88475390156062 16.6666666666667  C 1.66866746698679 16.6666666666667  1.51660664265706 16.7317708333333  1.42857142857143 16.8619791666667  C 1.34053621448579 17.0008680555556  1.33653461384554 17.1875  1.41656662665066 17.421875  C 1.60864345738295 18.0295138888889  2.18487394957983 18.3333333333333  3.1452581032413 18  L 14.2256902761104 18  C 14.4577831132453 18.3333333333333  14.6818727490996 18.2660590277778  14.8979591836735 18.1315104166667  C 15.1140456182473 17.9969618055556  15.2541016406563 17.8168402777778  15.3181272509004 17.5911458333333  L 18.9195678271309 4.73958333333333  C 18.9755902360944 4.54861111111111  18.9955982392957 4.30121527777778  18.9795918367347 3.99739583333333  Z M 7.16686674669868 3.75  L 6.91476590636255 4.58333333333333  C 6.8827531012405 4.69618055555555  6.89075630252101 4.79383680555555  6.93877551020408 4.87630208333333  C 6.98679471788715 4.95876736111111  7.06682673069228 5  7.17887154861945 5  L 14.4777911164466 5  C 14.5818327330932 5  14.6838735494198 4.95876736111111  14.7839135654262 4.87630208333333  C 14.8839535814326 4.79383680555555  14.9499799919968 4.69618055555555  14.9819927971188 4.58333333333333  L 15.234093637455 3.75  C 15.266106442577 3.63715277777778  15.2581032412965 3.53949652777778  15.2100840336134 3.45703125  C 15.1620648259304 3.37456597222222  15.0820328131253 3.33333333333333  14.9699879951981 3.33333333333333  L 7.67106842737095 3.33333333333333  C 7.56702681072429 3.33333333333333  7.46498599439776 3.37456597222222  7.36494597839136 3.45703125  C 7.26490596238495 3.53949652777778  7.19887955182073 3.63715277777778  7.16686674669868 3.75  Z M 6.17046818727491 7.08333333333333  L 5.91836734693878 7.91666666666667  C 5.88635454181673 8.02951388888889  5.89435774309724 8.12717013888889  5.94237695078031 8.20963541666667  C 5.99039615846339 8.29210069444444  6.07042817126851 8.33333333333333  6.18247298919568 8.33333333333333  L 13.4813925570228 8.33333333333333  C 13.5854341736695 8.33333333333333  13.687474989996 8.29210069444444  13.7875150060024 8.20963541666667  C 13.8875550220088 8.12717013888889  13.953581432573 8.02951388888889  13.9855942376951 7.91666666666667  L 14.2376950780312 7.08333333333333  C 14.2697078831533 6.97048611111111  14.2617046818727 6.87282986111111  14.2136854741897 6.79036458333333  C 14.1656662665066 6.70789930555556  14.0856342537015 6.66666666666667  13.9735894357743 6.66666666666667  L 6.67466986794718 6.66666666666667  C 6.57062825130052 6.66666666666667  6.46858743497399 6.70789930555556  6.36854741896759 6.79036458333333  C 6.26850740296119 6.87282986111111  6.20248099239696 6.97048611111111  6.17046818727491 7.08333333333333  Z " fill-rule="nonzero" fill="#ffffff" stroke="none" transform="matrix(1 0 0 1 34 23 )" />
  </g>
</svg>