<?xml version="1.0" encoding="utf-8"?>
<svg version="1.1" xmlns:xlink="http://www.w3.org/1999/xlink" width="355px" height="70px" xmlns="http://www.w3.org/2000/svg">
  <defs>
    <filter x="-21px" y="-7px" width="355px" height="70px" filterUnits="userSpaceOnUse" id="filter15">
      <feOffset dx="0" dy="2" in="SourceAlpha" result="shadowOffsetInner" />
      <feGaussianBlur stdDeviation="4.5" in="shadowOffsetInner" result="shadowGaussian" />
      <feComposite in2="shadowGaussian" operator="atop" in="SourceAlpha" result="shadowComposite" />
      <feColorMatrix type="matrix" values="0 0 0 0 0.909803921568627  0 0 0 0 0.909803921568627  0 0 0 0 0.909803921568627  0 0 0 1 0  " in="shadowComposite" />
    </filter>
    <g id="widget16">
      <path d="M -11.5 43.9411764705882  C -11.5 43.9411764705882  -11.5 2  -11.5 2  C -11.5 1.17157287525381  -10.8284271247462 0.5  -10 0.5  C -10 0.5  323 0.5  323 0.5  C 323.828427124746 0.5  324.5 1.17157287525381  324.5 2  C 324.5 2  324.5 43.9411764705882  324.5 43.9411764705882  C 324.5 44.7696035953344  323.828427124746 45.4411764705882  323 45.4411764705882  C 323 45.4411764705882  57.955372142937 45.4411764705882  57.955372142937 45.4411764705882  C 57.955372142937 45.4411764705882  48.4587100364954 51.4153080435455  48.4587100364954 51.4153080435455  C 48.4587100364954 51.4153080435455  38.2349378244372 45.4411764705882  38.2349378244372 45.4411764705882  C 38.2349378244372 45.4411764705882  -10 45.4411764705882  -10 45.4411764705882  C -10.8284271247462 45.4411764705882  -11.5 44.7696035953344  -11.5 43.9411764705882  Z " fill-rule="nonzero" fill="#f8f8f8" stroke="none" />
      <path d="M -12 43.9411764705882  C -12 43.9411764705882  -12 2  -12 2  C -12 0.895430500338413  -11.1045694996616 0  -10 0  C -10 0  323 0  323 0  C 324.104569499662 0  325 0.895430500338413  325 2  C 325 2  325 43.9411764705882  325 43.9411764705882  C 325 45.0457459702498  324.104569499662 45.9411764705882  323 45.9411764705882  C 323 45.9411764705882  58.0995623632385 45.9411764705882  58.0995623632385 45.9411764705882  C 58.0995623632385 45.9411764705882  48.4682713347921 52  48.4682713347921 52  C 48.4682713347921 52  38.0995623632385 45.9411764705882  38.0995623632385 45.9411764705882  C 38.0995623632385 45.9411764705882  -10 45.9411764705882  -10 45.9411764705882  C -11.1045694996616 45.9411764705882  -12 45.0457459702498  -12 43.9411764705882  Z M -11 43.9411764705882  C -11 44.493461220419  -10.5522847498308 44.9411764705882  -10 44.9411764705882  C -10 44.9411764705882  38.3703132856362 44.9411764705882  38.3703132856362 44.9411764705882  C 38.3703132856362 44.9411764705882  48.4491487381987 50.830616087091  48.4491487381987 50.830616087091  C 48.4491487381987 50.830616087091  57.8111819226355 44.9411764705882  57.8111819226355 44.9411764705882  C 57.8111819226355 44.9411764705882  323 44.9411764705882  323 44.9411764705882  C 323.552284749831 44.9411764705882  324 44.493461220419  324 43.9411764705882  C 324 43.9411764705882  324 2  324 2  C 324 1.44771525016921  323.552284749831 1  323 1  C 323 1  -10 1  -10 1  C -10.5522847498308 1  -11 1.44771525016921  -11 2  C -11 2  -11 43.9411764705882  -11 43.9411764705882  Z " fill-rule="nonzero" fill="#e4e5e7" stroke="none" />
    </g>
  </defs>
  <g transform="matrix(1 0 0 1 21 7 )">
    <use xlink:href="#widget16" filter="url(#filter15)" />
    <use xlink:href="#widget16" />
  </g>
</svg>