<?xml version="1.0" encoding="utf-8"?>
<svg version="1.1" xmlns:xlink="http://www.w3.org/1999/xlink" width="15px" height="15px" xmlns="http://www.w3.org/2000/svg">
  <defs>
    <mask fill="white" id="clip30">
      <path d="M 14.7756827048114 6.18335500650195  L 13.4297789336801 7.5  L 14.7756827048114 8.81664499349805  C 14.9707412223667 8.99869960988296  15.0357607282185 9.22626788036411  14.9707412223667 9.49934980494148  C 14.8927178153446 9.76592977893368  14.72366710013 9.93172951885566  14.463589076723 9.99674902470741  L 12.6300390117035 10.4648894668401  L 13.146944083225 12.278933680104  C 13.2249674902471 12.5455136540962  13.1631989596879 12.7730819245774  12.9616384915475 12.9616384915475  C 12.7730819245774 13.1631989596879  12.5455136540962 13.2249674902471  12.278933680104 13.146944083225  L 10.4648894668401 12.6300390117035  L 9.99674902470741 14.463589076723  C 9.93172951885566 14.72366710013  9.76592977893368 14.8927178153446  9.49934980494148 14.9707412223667  C 9.42132639791938 14.9837451235371  9.35955786736021 14.9902470741222  9.31404421326398 14.9902470741222  C 9.11248374512354 14.9902470741222  8.94668400520156 14.9187256176853  8.81664499349805 14.7756827048114  L 7.5 13.4297789336801  L 6.18335500650195 14.7756827048114  C 6.00130039011704 14.9707412223667  5.77373211963589 15.0357607282185  5.50065019505852 14.9707412223667  C 5.23407022106632 14.8992197659298  5.06827048114434 14.7301690507152  5.00325097529259 14.463589076723  L 4.53511053315995 12.6300390117035  L 2.72106631989597 13.146944083225  C 2.45448634590377 13.2249674902471  2.22691807542263 13.1631989596879  2.03836150845254 12.9616384915475  C 1.83680104031209 12.7730819245774  1.77503250975293 12.5455136540962  1.85305591677503 12.278933680104  L 2.36996098829649 10.4648894668401  L 0.536410923276983 9.99674902470741  C 0.276332899869961 9.93172951885566  0.107282184655397 9.76592977893368  0.02925877763329 9.49934980494148  C -0.0357607282184655 9.22626788036411  0.02925877763329 8.99869960988296  0.224317295188557 8.81664499349805  L 1.5702210663199 7.5  L 0.224317295188557 6.18335500650195  C 0.02925877763329 6.00130039011703  -0.0357607282184655 5.77373211963589  0.02925877763329 5.50065019505852  C 0.107282184655397 5.23407022106632  0.276332899869961 5.06827048114434  0.536410923276983 5.00325097529259  L 2.36996098829649 4.53511053315995  L 1.85305591677503 2.72106631989597  C 1.77503250975293 2.45448634590377  1.83680104031209 2.22691807542263  2.03836150845254 2.03836150845254  C 2.22691807542263 1.83680104031209  2.45448634590377 1.77503250975293  2.72106631989597 1.85305591677503  L 4.53511053315995 2.36996098829649  L 5.00325097529259 0.536410923276983  C 5.06827048114434 0.269830949284784  5.23407022106632 0.104031209362808  5.50065019505852 0.0390117035110527  C 5.76723016905072 -0.0390117035110527  5.99479843953186 0.0227568270481143  6.18335500650195 0.224317295188557  L 7.5 1.57997399219766  L 8.81664499349805 0.224317295188557  C 9.00520156046814 0.0292587776332903  9.23276983094929 -0.03250975292588  9.49934980494148 0.0390117035110527  C 9.76592977893368 0.104031209362808  9.93172951885566 0.269830949284784  9.99674902470741 0.536410923276983  L 10.4648894668401 2.36996098829649  L 12.278933680104 1.85305591677503  C 12.5455136540962 1.77503250975293  12.7730819245774 1.83680104031209  12.9616384915475 2.03836150845254  C 13.1631989596879 2.22691807542263  13.2249674902471 2.45448634590377  13.146944083225 2.72106631989597  L 12.6300390117035 4.53511053315995  L 14.463589076723 5.00325097529259  C 14.72366710013 5.06827048114434  14.8927178153446 5.23407022106632  14.9707412223667 5.50065019505852  C 15.0357607282185 5.77373211963589  14.9707412223667 6.00130039011703  14.7756827048114 6.18335500650195  Z " fill-rule="evenodd" />
    </mask>
  </defs>
  <g transform="matrix(1 0 0 1 -720 -148 )">
    <path d="M 14.7756827048114 6.18335500650195  L 13.4297789336801 7.5  L 14.7756827048114 8.81664499349805  C 14.9707412223667 8.99869960988296  15.0357607282185 9.22626788036411  14.9707412223667 9.49934980494148  C 14.8927178153446 9.76592977893368  14.72366710013 9.93172951885566  14.463589076723 9.99674902470741  L 12.6300390117035 10.4648894668401  L 13.146944083225 12.278933680104  C 13.2249674902471 12.5455136540962  13.1631989596879 12.7730819245774  12.9616384915475 12.9616384915475  C 12.7730819245774 13.1631989596879  12.5455136540962 13.2249674902471  12.278933680104 13.146944083225  L 10.4648894668401 12.6300390117035  L 9.99674902470741 14.463589076723  C 9.93172951885566 14.72366710013  9.76592977893368 14.8927178153446  9.49934980494148 14.9707412223667  C 9.42132639791938 14.9837451235371  9.35955786736021 14.9902470741222  9.31404421326398 14.9902470741222  C 9.11248374512354 14.9902470741222  8.94668400520156 14.9187256176853  8.81664499349805 14.7756827048114  L 7.5 13.4297789336801  L 6.18335500650195 14.7756827048114  C 6.00130039011704 14.9707412223667  5.77373211963589 15.0357607282185  5.50065019505852 14.9707412223667  C 5.23407022106632 14.8992197659298  5.06827048114434 14.7301690507152  5.00325097529259 14.463589076723  L 4.53511053315995 12.6300390117035  L 2.72106631989597 13.146944083225  C 2.45448634590377 13.2249674902471  2.22691807542263 13.1631989596879  2.03836150845254 12.9616384915475  C 1.83680104031209 12.7730819245774  1.77503250975293 12.5455136540962  1.85305591677503 12.278933680104  L 2.36996098829649 10.4648894668401  L 0.536410923276983 9.99674902470741  C 0.276332899869961 9.93172951885566  0.107282184655397 9.76592977893368  0.02925877763329 9.49934980494148  C -0.0357607282184655 9.22626788036411  0.02925877763329 8.99869960988296  0.224317295188557 8.81664499349805  L 1.5702210663199 7.5  L 0.224317295188557 6.18335500650195  C 0.02925877763329 6.00130039011703  -0.0357607282184655 5.77373211963589  0.02925877763329 5.50065019505852  C 0.107282184655397 5.23407022106632  0.276332899869961 5.06827048114434  0.536410923276983 5.00325097529259  L 2.36996098829649 4.53511053315995  L 1.85305591677503 2.72106631989597  C 1.77503250975293 2.45448634590377  1.83680104031209 2.22691807542263  2.03836150845254 2.03836150845254  C 2.22691807542263 1.83680104031209  2.45448634590377 1.77503250975293  2.72106631989597 1.85305591677503  L 4.53511053315995 2.36996098829649  L 5.00325097529259 0.536410923276983  C 5.06827048114434 0.269830949284784  5.23407022106632 0.104031209362808  5.50065019505852 0.0390117035110527  C 5.76723016905072 -0.0390117035110527  5.99479843953186 0.0227568270481143  6.18335500650195 0.224317295188557  L 7.5 1.57997399219766  L 8.81664499349805 0.224317295188557  C 9.00520156046814 0.0292587776332903  9.23276983094929 -0.03250975292588  9.49934980494148 0.0390117035110527  C 9.76592977893368 0.104031209362808  9.93172951885566 0.269830949284784  9.99674902470741 0.536410923276983  L 10.4648894668401 2.36996098829649  L 12.278933680104 1.85305591677503  C 12.5455136540962 1.77503250975293  12.7730819245774 1.83680104031209  12.9616384915475 2.03836150845254  C 13.1631989596879 2.22691807542263  13.2249674902471 2.45448634590377  13.146944083225 2.72106631989597  L 12.6300390117035 4.53511053315995  L 14.463589076723 5.00325097529259  C 14.72366710013 5.06827048114434  14.8927178153446 5.23407022106632  14.9707412223667 5.50065019505852  C 15.0357607282185 5.77373211963589  14.9707412223667 6.00130039011703  14.7756827048114 6.18335500650195  Z " fill-rule="nonzero" fill="#000000" stroke="none" fill-opacity="0" transform="matrix(1 0 0 1 720 148 )" />
    <path d="M 14.7756827048114 6.18335500650195  L 13.4297789336801 7.5  L 14.7756827048114 8.81664499349805  C 14.9707412223667 8.99869960988296  15.0357607282185 9.22626788036411  14.9707412223667 9.49934980494148  C 14.8927178153446 9.76592977893368  14.72366710013 9.93172951885566  14.463589076723 9.99674902470741  L 12.6300390117035 10.4648894668401  L 13.146944083225 12.278933680104  C 13.2249674902471 12.5455136540962  13.1631989596879 12.7730819245774  12.9616384915475 12.9616384915475  C 12.7730819245774 13.1631989596879  12.5455136540962 13.2249674902471  12.278933680104 13.146944083225  L 10.4648894668401 12.6300390117035  L 9.99674902470741 14.463589076723  C 9.93172951885566 14.72366710013  9.76592977893368 14.8927178153446  9.49934980494148 14.9707412223667  C 9.42132639791938 14.9837451235371  9.35955786736021 14.9902470741222  9.31404421326398 14.9902470741222  C 9.11248374512354 14.9902470741222  8.94668400520156 14.9187256176853  8.81664499349805 14.7756827048114  L 7.5 13.4297789336801  L 6.18335500650195 14.7756827048114  C 6.00130039011704 14.9707412223667  5.77373211963589 15.0357607282185  5.50065019505852 14.9707412223667  C 5.23407022106632 14.8992197659298  5.06827048114434 14.7301690507152  5.00325097529259 14.463589076723  L 4.53511053315995 12.6300390117035  L 2.72106631989597 13.146944083225  C 2.45448634590377 13.2249674902471  2.22691807542263 13.1631989596879  2.03836150845254 12.9616384915475  C 1.83680104031209 12.7730819245774  1.77503250975293 12.5455136540962  1.85305591677503 12.278933680104  L 2.36996098829649 10.4648894668401  L 0.536410923276983 9.99674902470741  C 0.276332899869961 9.93172951885566  0.107282184655397 9.76592977893368  0.02925877763329 9.49934980494148  C -0.0357607282184655 9.22626788036411  0.02925877763329 8.99869960988296  0.224317295188557 8.81664499349805  L 1.5702210663199 7.5  L 0.224317295188557 6.18335500650195  C 0.02925877763329 6.00130039011703  -0.0357607282184655 5.77373211963589  0.02925877763329 5.50065019505852  C 0.107282184655397 5.23407022106632  0.276332899869961 5.06827048114434  0.536410923276983 5.00325097529259  L 2.36996098829649 4.53511053315995  L 1.85305591677503 2.72106631989597  C 1.77503250975293 2.45448634590377  1.83680104031209 2.22691807542263  2.03836150845254 2.03836150845254  C 2.22691807542263 1.83680104031209  2.45448634590377 1.77503250975293  2.72106631989597 1.85305591677503  L 4.53511053315995 2.36996098829649  L 5.00325097529259 0.536410923276983  C 5.06827048114434 0.269830949284784  5.23407022106632 0.104031209362808  5.50065019505852 0.0390117035110527  C 5.76723016905072 -0.0390117035110527  5.99479843953186 0.0227568270481143  6.18335500650195 0.224317295188557  L 7.5 1.57997399219766  L 8.81664499349805 0.224317295188557  C 9.00520156046814 0.0292587776332903  9.23276983094929 -0.03250975292588  9.49934980494148 0.0390117035110527  C 9.76592977893368 0.104031209362808  9.93172951885566 0.269830949284784  9.99674902470741 0.536410923276983  L 10.4648894668401 2.36996098829649  L 12.278933680104 1.85305591677503  C 12.5455136540962 1.77503250975293  12.7730819245774 1.83680104031209  12.9616384915475 2.03836150845254  C 13.1631989596879 2.22691807542263  13.2249674902471 2.45448634590377  13.146944083225 2.72106631989597  L 12.6300390117035 4.53511053315995  L 14.463589076723 5.00325097529259  C 14.72366710013 5.06827048114434  14.8927178153446 5.23407022106632  14.9707412223667 5.50065019505852  C 15.0357607282185 5.77373211963589  14.9707412223667 6.00130039011703  14.7756827048114 6.18335500650195  Z " stroke-width="2" stroke="#d7d7d7" fill="none" transform="matrix(1 0 0 1 720 148 )" mask="url(#clip30)" />
  </g>
</svg>