<?xml version="1.0" encoding="utf-8"?>
<svg version="1.1" xmlns:xlink="http://www.w3.org/1999/xlink" width="8px" height="12px" xmlns="http://www.w3.org/2000/svg">
  <g transform="matrix(1 0 0 1 -17 -77 )">
    <path d="M 7.73611111111111 5.47265625  C 7.91203703703704 5.62109375  8 5.796875  8 6  C 8 6.203125  7.91203703703704 6.37890625  7.73611111111111 6.52734375  L 1.51388888888889 11.77734375  C 1.33796296296296 11.92578125  1.12962962962963 12  0.888888888888889 12  C 0.648148148148148 12  0.439814814814815 11.92578125  0.263888888888889 11.77734375  C 0.087962962962963 11.62890625  0 11.453125  0 11.25  L 0 0.75  C 0 0.546874999999998  0.087962962962963 0.371093749999998  0.263888888888889 0.22265625  C 0.439814814814815 0.0742187499999991  0.648148148148148 0  0.888888888888889 0  C 1.12962962962963 0  1.33796296296296 0.0742187499999991  1.51388888888889 0.22265625  L 7.73611111111111 5.47265625  Z " fill-rule="nonzero" fill="#aaaaaa" stroke="none" transform="matrix(1 0 0 1 17 77 )" />
  </g>
</svg>