<?xml version="1.0" encoding="utf-8"?>
<svg version="1.1" xmlns:xlink="http://www.w3.org/1999/xlink" width="32px" height="32px" xmlns="http://www.w3.org/2000/svg">
  <g transform="matrix(1 0 0 1 -838 0 )">
    <path d="M 854 0.5  C 862.68 0.5  869.5 7.32  869.5 16  C 869.5 24.68  862.68 31.5  854 31.5  C 845.32 31.5  838.5 24.68  838.5 16  C 838.5 7.32  845.32 0.5  854 0.5  Z " fill-rule="nonzero" fill="#ffffff" stroke="none" fill-opacity="0" />
    <path d="M 854 0.5  C 862.68 0.5  869.5 7.32  869.5 16  C 869.5 24.68  862.68 31.5  854 31.5  C 845.32 31.5  838.5 24.68  838.5 16  C 838.5 7.32  845.32 0.5  854 0.5  Z " stroke-width="1" stroke="#000000" fill="none" stroke-opacity="0.149019607843137" />
  </g>
</svg>