<?xml version="1.0" encoding="utf-8"?>
<svg version="1.1" xmlns:xlink="http://www.w3.org/1999/xlink" width="438px" height="192px" xmlns="http://www.w3.org/2000/svg">
  <g transform="matrix(1 0 0 1 -239 -158 )">
    <path d="M 240 164  A 5 5 0 0 1 245 159 L 671 159  A 5 5 0 0 1 676 164 L 676 344  A 5 5 0 0 1 671 349 L 245 349  A 5 5 0 0 1 240 344 L 240 164  Z " fill-rule="nonzero" fill="#000000" stroke="none" fill-opacity="0.0196078431372549" />
    <path d="M 239.5 164  A 5.5 5.5 0 0 1 245 158.5 L 671 158.5  A 5.5 5.5 0 0 1 676.5 164 L 676.5 344  A 5.5 5.5 0 0 1 671 349.5 L 245 349.5  A 5.5 5.5 0 0 1 239.5 344 L 239.5 164  Z " stroke-width="1" stroke-dasharray="9,4" stroke="#108ee9" fill="none" stroke-dashoffset="0.5" />
  </g>
</svg>