<?xml version="1.0" encoding="utf-8"?>
<svg version="1.1" xmlns:xlink="http://www.w3.org/1999/xlink" width="12px" height="12px" viewBox="592 73  12 12" xmlns="http://www.w3.org/2000/svg">
  <path d="M 598 73  C 601.36 73  604 75.64  604 79  C 604 82.36  601.36 85  598 85  C 594.64 85  592 82.36  592 79  C 592 75.64  594.64 73  598 73  Z " fill-rule="nonzero" fill="#ffffff" stroke="none" />
  <path d="M 598 73.5  C 601.08 73.5  603.5 75.92  603.5 79  C 603.5 82.08  601.08 84.5  598 84.5  C 594.92 84.5  592.5 82.08  592.5 79  C 592.5 75.92  594.92 73.5  598 73.5  Z " stroke-width="1" stroke="#797979" fill="none" />
  <path d="M 598 82  C 596.32 82  595 80.68  595 79  C 595 77.32  596.32 76  598 76  C 599.68 76  601 77.32  601 79  C 601 80.68  599.68 82  598 82  " fill-rule="nonzero" fill="#797979" stroke="none" />
</svg>