<?xml version="1.0" encoding="utf-8"?>
<svg version="1.1" xmlns:xlink="http://www.w3.org/1999/xlink" width="12px" height="12px" viewBox="527 73  12 12" xmlns="http://www.w3.org/2000/svg">
  <path d="M 533 73  C 536.36 73  539 75.64  539 79  C 539 82.36  536.36 85  533 85  C 529.64 85  527 82.36  527 79  C 527 75.64  529.64 73  533 73  Z " fill-rule="nonzero" fill="#f0f0f0" stroke="none" />
  <path d="M 533 73.5  C 536.08 73.5  538.5 75.92  538.5 79  C 538.5 82.08  536.08 84.5  533 84.5  C 529.92 84.5  527.5 82.08  527.5 79  C 527.5 75.92  529.92 73.5  533 73.5  Z " stroke-width="1" stroke="#797979" fill="none" />
  <path d="M 533 82  C 531.32 82  530 80.68  530 79  C 530 77.32  531.32 76  533 76  C 534.68 76  536 77.32  536 79  C 536 80.68  534.68 82  533 82  " fill-rule="nonzero" fill="#797979" stroke="none" />
</svg>