<?xml version="1.0" encoding="utf-8"?>
<svg version="1.1" xmlns:xlink="http://www.w3.org/1999/xlink" width="12px" height="12px" viewBox="465 74  12 12" xmlns="http://www.w3.org/2000/svg">
  <path d="M 471 74  C 474.36 74  477 76.64  477 80  C 477 83.36  474.36 86  471 86  C 467.64 86  465 83.36  465 80  C 465 76.64  467.64 74  471 74  Z " fill-rule="nonzero" fill="#ffffff" stroke="none" />
  <path d="M 471 74.5  C 474.08 74.5  476.5 76.92  476.5 80  C 476.5 83.08  474.08 85.5  471 85.5  C 467.92 85.5  465.5 83.08  465.5 80  C 465.5 76.92  467.92 74.5  471 74.5  Z " stroke-width="1" stroke="#797979" fill="none" />
  <path d="M 471 83  C 469.32 83  468 81.68  468 80  C 468 78.32  469.32 77  471 77  C 472.68 77  474 78.32  474 80  C 474 81.68  472.68 83  471 83  " fill-rule="nonzero" fill="#797979" stroke="none" />
</svg>